<?xml version="1.0" encoding="UTF-8"?>
<svg version="1.1" viewBox="0 0 1600 1600" width="1280" height="1280" xmlns="http://www.w3.org/2000/svg">
<path transform="translate(0)" d="m0 0h1600v1600h-1600z" fill="#875F2C"/>
<path transform="translate(0)" d="m0 0h1600v618l-5-1v-2l-5 2-5 5-6-2-2 4h-4v-3l-5 2-9 1-10 4-3 1v2l-9 1-2-1h-1l-2 5-5 1-10 3-6 3-7 3-2 1h-7l-5 2-9 5-18 4-11 1-6 2-11 1h-10l-10-2-4-3h-13v-2l-2-1-3-2v-2l-6-1-3-3v-4l-5-2-5-6v-2l-4-2-5-3v-2l-3-1 1-2-5-2 1-8-10-3-1-3h2v-3l-4-1v-4l-2-1-3-6-3-2-1-5v-7h2l-3-9-2-2-1-6 2-1-1-7 2-5-4-1 1-9h1l1-6h-4-3l-2 9 3 1-2 5 1 6h-4l1 5h2l1 4-2 3-3 3h-2l-1 3h-2l-2 1v2l3 1-1 5-1 2h2l-1 3-2 2-1-3 1-2h-2v-2l-3 2 2 10-2 5h-2l4 10-3 3h-3l-1 4-2 3h-2l-1 4-6 2v2h-4l-1 3h-2l-1 3h-2v2l-6 3-4 6-13 7-9 3-9 4h-13l-16 1-6-1-8 2-5-2-6 2-4-1h-14l-7 2-9 1-10 1h-7l-3 1h-13l-2 1h-15l-3 1-18 1-3-1-24 3h-12l-1-1-8-1v-2l-10-2-12-7-7-6v-2l-3-1-4-5-6-15-4-9-6-12-6-10v-4h-2l-7-8-3-8-8-11-3 1-2-1v-3l-5-1v-2l-3 1-2-4-1 2-9-3-7 1h-4l-11-2-17 1-9 3-4-1-1 2h-4l-2 1h-13l-2 3-5 1h-11l-5-1-5-2-15-1-12-2-7 2v2h-4v-2l-9 1-4 3-15 3-10 1-4 1v1h-6l-3-3h-1l2 1-1 2-4-1-1 4-5 2v-2h-2v2l-4 1-2 1v2l-10 3-3 1v4l-8 2-1 5-4 5h-2l-1 3-5 8-5 9-5 2-3 1-2 4-3 1-2 4-11 7-6 2-4 3-5-1-10 3-9 1-16-2-3-2-6 1-6-4-9-2-7-1-3-1v-2l-5-1-9-5-7-2-3-3h-6v-2h-3v-2l-7-2-6-5-2 1-6-7-6-3v-2l-4-2v-2l-7-1-4-3-9-2-6-3v-2h-2v-3l-4-2-6-2-5-5-5-4v-2l-9-3-7-2-5-1-1-5h-2l-3 5-8 3-4 2v2l-3 3h-2l-2 5-5 3h-2l-2 5-3 2-2 6-5 5h-2v2h-2v6l-6 12-1 1-2 10-4 5-3 5-5 5-4 6-7 3-3 3-6 3-6 1h-11l-20-7-4-2v-2l-5-1-9-7-5-3-17-10v-2l-5-2-1-3-5-2-7-6-2-5-3-1-4-5v-2l-4-2-4-5v-2l-5-2-9-9-11-6-22-11-5-5-9-7-3-1v-2l-2-1-6-7-12-11-10-7-7-3-6-3-9 1-9 4-9 6-4 2-1 4h-2l-2 6-1 10-1 6-3 23-2 15v8l-5 29-6 21-7 21-5 10-3 2-1 3-15 8-6 4-13 4-30 3h-3z" fill="#4B6F17"/>
<path transform="translate(131,511)" d="m0 0 9 1 6 4 5 2 11 8 12 11 2 4 3 1 1 4 4 1 8 6 5 5 22 11 12 7 8 8 5 3 6 8 5 5 6 7v2l3 1 5 5 4 2 4 4 2 1v2l5 2 12 7 5 3 9 7 5 2v2l4 1 21 7h11l7-2 6-4 4-3h4l2-4 5-7 3-3 2-5 3-2 2-10 4-6 2-5 2-8h2v-2h2l2-4 3-2 2-6 3-1 2-5 5-3h2l2-5h2l2-5 5-3 8-3 3-5 3 1v4l10 2 7 3 4 2v2l4 2 2 4 5 1 1 2 5 2 3 2v3h2v2l9 3 7 2 3 2 7 2 5 6h2v2h4l6 7 2-1 5 5 2-1v2l5 2v2l9 1 1 3 11 3 8 5 4 1v2l3-1 7 2 11 2 4 4 7-1v2l18 2 9-1 12-3 4 1 4-4 9-3 8-6 6-7 4-3h4l2-5 3-5 4-8 6-5 3-7 4-2h4v-4l3-2 10-2 1-4 3-1 2 1v-2h4l4-2v-2l5-1h-5v-2l6 1 1 3 5-1 3-2h6l2-1 10-1 9-2 4-3 7-1 2 1v2h4v-2l7-3 12 2 16 1v2h8l1 1h16l2-4h13l10-3 2 1 9-3 18-1 9 2 4-1v2l7-2 9 3h3l1 2h2v2l5 1v3l4 1 1-2 10 13 2 7 6 6v2h2l2 6 4 5 4 10 9 18 4 11v2l3 1 10 10 12 7 10 3v2h8l5 1 19-1 14-2 6 1 14-1 5-1h13l6-1h9l9-1h7l8-1 11-2 3-1h12l4 1 7-2 5 2 7-2 13 1 17-1h5l9-4 11-4 12-7 4-6 5-1v-2l5-4 1-2 3-2 2-2h3 2l1-4h2l2-4 1-3 5-3-3-7v-3h2l1-6-2-9 4-2v2h2v4l2-3-1-1 1-7-2-1v-5l4 1 1-4 5-2v-2h2l-1-4h-2l-1-5h4l-2-7 1-4-2-2 3-8 5-2v2h2v9l-3 6 4 1v5h-2l2 7-2 4 4 8 1 1v5h-2l1 7 1 5 3 2 1 5 2 1 3 4v2h2l-1 6 7 1 4 4-1 6 4 2v2l2 1v2l4 1 5 4 5 7 5 3 2 5 7 3v2l4 1 2 3h12l4 3 11 2h15l9-2 2-1 15-2 14-3 9-5 6-2h6l5-3 6-2 4-2 10-3 5-1 2-7 3 3h9v-2l5-3 8-3 9-1 5-1v3l5-2 1-2 6 1 5-5 5-1v2l5 1v172l-3-1-1-8-2-4h-2l-1-4-4 1-1 2h-2l2 5 2-1 4 4-3 5-8 3-2 1h-9v-2l-6-1h-4l-18-1-6 1-3-1-6 1-7-2-2 2v-2l-3 1h-4l-5 2h-4l3 5h-6l-1 3-7 2h-3v2h-6v-2l-8 1-2 3-3-1-1-2-6 2-2 1 2-5 4-4-2-4-7-1h-5l-3 5-3 2h-3l-1 3-5 1-4 2-6-2-8-2-5 1-8-1-11-1-6-1-3 1-3-3h-6l-6-2-5-2-5 1-11 4h-3l1-5-6 1v2l-10 1-2-6-7-2-1-3-5 1 2 2h-8l1-3h-16l-5-1h-7l-5 2-7-3-4 1-2-1h-18l-3 1-2-1v2l-5-2-5-3-4 2-5-1-4-3-4 4-5 1-3-2h-9l-6-2h-3v2h-5l-5-2-11 2-9-4-2 4-5-1-5-2v3l-4 1-3-3-3-4v-2l-7 2-3-1v-2h-5l-5 2h-8l-5 1h-9l-5 1-1 3h-5l-2 1-4-4h-1l-1 1v3l-6-5-4 2-1 2-3-2v-2l-10 2-1-3-4 2v4h2v2h-4l-3 1-1 2-6-4-7-1-1 2h-3l-3-2v-3l-3 2-1 3-5 2-5-2-2 1 1 3-3 5-4-4 1-4-5-2-2 5-8 4-4-1-1 2-2-1-2-4-2 1-6-2v-3h-3l-1 2v-2l-6 2-2 3h-8l-6-2-3 1-2 4h-5l-4 2-14 1h-10l-5 1h-17l-5 2-4-2-12 1-5 3h-6l-5 2-5-1-3 1h-21l-10-1-2-4-9 1-4-2-25-3-3 1h-8l-4-2-5 1-3 1h-8l-5-1-10 2-6 1-5-1h-16l-3 3-15 2-6-1-14 1-7-1h-7l-7-2v-2l-5-1 1 3-5 1-3-2-10 1-13-1-4-2-12-1-11-4-18-1-6-1-6 1-9-3-10-2-9 1-1 2-4 2-1 2-8-4-4 3-8 1-4-3-3 1-7-1-1 2-10-2-12 1-4-2-4 1-6 2h-7l-2-2-5 1-12 3h-8l-15 6-14 1-7 1-6-1-3 1v2l-2 1h-6-4l-4 4-11 2-8-2-5 1-11 4-8-2-1 2h-7l-5-3-1 2h-2v2l-5-2-2-2h-6l-5 1-5-1-9 1-2 4-7-2 1-4h2l-1-3-2 2h-8v5l-4 1h-4l-5-1v-3l-4-2-7-1h-2l-1 3-5 1-5-3v-2l-6-6-4 1 4 1v2l-4 3h-3v-2-1h-3l-3 5-4-4-3-4-4-2-3 1v-2h-2l-1 2-2-3h-5l-1 5 2 1-2 2h-7l-1-3v-3h-6l-1 7-13-1-6 1-5-1-6 1-4 3h-7l-6-2 1 3-2 2-10-1h-2v2l-10 3-10 1-2 4-2 1-3 1h-2v-2h-5v4h2v2l-5 1-3-1v-2h-5v6l-5 1-5-2h-5l-1 3-5 1h-3l-4-2 1-3 6 1 1-3-3-3-3-1-2 6-6-2v-121l3-1 30-3 13-4 13-8 6-3h2l1-4 3-1 1-4 4-9 9-27 4-17 4-24v-10l5-36 2-16 3-6h2l1-4 8-6 8-5z" fill="#6C5924"/>
<path transform="translate(0,1502)" d="m0 0h13l7 1h11l6-1 15 1h12l16 1 67 1h51l30-1 25 1 38-1h174l13 1h467l13-1h405l22 1h166l33-1 16 1v95h-1600z" fill="#937046"/>
<path transform="translate(745,487)" d="m0 0 8 1 4 1 4-1 11-1 7 1 2 1 4 1h2 6l5 2v7h5l-3-2v-2h2v2h2l1-2 10 6 3 2 1 3 4 6v3h10v2h2l-1 4 2 3 7 1 5-1 4 2 9-1 6-5h5v-5h3v-2l10-4h3l4-3 7-1 2 1v-2l5-2 7-3h2l1 2 4-2 3-1 8-2v2l7 1 4-1 1-2 1 2 5 1v-2l10-3 2-1 2 1v2l4 1v3h2l1 2 6-1h2v2l5 1v3l9 3-1 2v3h2l-3 6 5 2 3 3v6h5l2 3 2 9 1 3 2 2v2h2l-1 4 1 4 1 5 7 1 1-9 3 4 1 3 4 4 1 2 3 1 2 2 3 4v3l8 4 3 1 2 3 11 1 2 1 1 3 5 2 6-5 4-1v2l5-1v-2l4 1 1 2 1-2h2l1-5h2v-2l7 1 7 3 5-1 3-3h6l1-2 3-2 1 3 4 3h7l3 2 1-2 3-2h6l4 5 1-3 11-2 2 5h4v-6l4-2 5 4h3l7 2 5-1-1-3h2l1-3 3 2-1 5h2l2-5h5v3h3l1-2 3 1-1 1 4 2 1-2 3 1 1 2 5-2h5l1-6h3l2 1 5-1 2-6 1 2 4-2 6-7h2l2-4v-4-3l5-1 4-2-1-4 3-5h2l1-6h3l-2-2 3-1 2-3h2v-2h2l1-4h2l1-3 3-1 2-7 5-3 3-1 1-3h2l2-5h2v-3h2l2 2 9-4 7-2 4-1 10 2h3l2 2 7 5 1-2 3 6 3 1-1 5 5 5 5 2 3 1v2l3 1 2 8 3 1 2 4h2l3 11 1 2 3 2v4l2 1 4 4v5l4 1 5 6h3l1 3 5 2 1 1h4l1 2 3-3 1 3 5-2 1 4-3 2-1 3 7-2 4 1 1 3 3 1v2h8v-2l6-1v2l2 1v1h3l1 6 2 1-2-6 7-3 4 1 5-1 6-1v-2h2l2-4 5-1 3 1v-2l4 1 2-1 1 1 4-1 7 1 5-1 1-4 10-1v-2l6-2 5 3h2l2-2v2l8-3 3-9 4 2v2l3-1 6 1 4-2v3l6-1 3-5 4-4 4-1 3-3 1 1v63l-5-1v-2l-5 2-5 5-6-2-2 4h-4v-3l-5 2-9 1-10 4-3 1v2l-9 1-2-1h-1l-2 5-5 1-10 3-6 3-7 3-2 1h-7l-5 2-9 5-18 4-11 1-6 2-11 1h-10l-10-2-4-3h-13v-2l-2-1-3-2v-2l-6-1-3-3v-4l-5-2-5-6v-2l-4-2-5-3v-2l-3-1 1-2-5-2 1-8-10-3-1-3h2v-3l-4-1v-4l-2-1-3-6-3-2-1-5v-7h2l-3-9-2-2-1-6 2-1-1-7 2-5-4-1 1-9h1l1-6h-4-3l-2 9 3 1-2 5 1 6h-4l1 5h2l1 4-2 3-3 3h-2l-1 3h-2l-2 1v2l3 1-1 5-1 2h2l-1 3-2 2-1-3 1-2h-2v-2l-3 2 2 10-2 5h-2l4 10-3 3h-3l-1 4-2 3h-2l-1 4-6 2v2h-4l-1 3h-2l-1 3h-2v2l-6 3-4 6-13 7-9 3-9 4h-13l-16 1-6-1-8 2-5-2-6 2-4-1h-14l-7 2-9 1-10 1h-7l-3 1h-13l-2 1h-15l-3 1-18 1-3-1-24 3h-12l-1-1-8-1v-2l-10-2-12-7-7-6v-2l-3-1-4-5-6-15-4-9-6-12-6-10v-4h-2l-7-8-3-8-8-11-3 1-2-1v-3l-5-1v-2l-3 1-2-4-1 2-9-3-7 1h-4l-11-2-17 1-9 3-4-1-1 2h-4l-2 1h-13l-2 3-5 1h-11l-5-1-5-2-15-1-12-2-7 2v2h-4v-2l-9 1-4 3-15 3-10 1-4 1v1h-6l-3-3h-1l2 1-1 2-4-1-1 4-5 2v-2h-2v2l-4 1-2 1v2l-10 3-3 1v4l-8 2-1 5-4 5h-2l-1 3-5 8-5 9-5 2-3 1-2 4-3 1-2 4-11 7-6 2-4 3-5-1-10 3-9 1-16-2-3-2-6 1-6-4-9-2-7-1-3-1v-2l-5-1-9-5-7-2-3-3h-6v-2h-3v-2l-7-2-6-5-2 1-6-7-6-3v-2l-4-2v-2l-7-1-4-3-9-2-6-3v-2h-2v-3l-4-2-6-2-5-5-5-4v-2l-9-3-7-2-5-1-1-5h-2l-3 5-8 3-4 2v2l-3 3h-2l-2 5-5 3h-2l-2 5-3 2-2 6-5 5h-2v2h-2v6l-6 12-1 1-2 10-4 5-3 5-5 5-4 6-7 3-3 3-6 3-6 1h-11l-20-7-4-2v-2l-5-1-9-7-5-3-17-10v-2l-5-2-1-3-5-2-7-6-2-5-3-1-4-5v-2l-4-2-4-5v-2l-5-2-9-9-11-6-22-11-5-5-9-7-3-1v-2l-2-1-6-7-12-11-10-7-7-3-6-3-9 1-9 4-9 6-4 2-1 4h-2l-2 6-1 10-1 6-3 23-2 15v8l-5 29-6 21-7 21-4 7-2-1 1-7 3-8 4-9 7-23 3-16 1-18v-20l2-17v-10l1-2h2v-11l4-10 4-9h2v-2h2l1-3 3 1-1-4 7-1 2-5 14-3 3-3 4-1h2v3l4 1 1 4 7 2v3l9 3 5 3-1-5 5 3 1 5 2 2-1 2 3 1v2l9-1 1 7 6 3 2 6 2 3 1 2 3-1 12 9 5 2 4 4 8 4 9 3h9l4 2 4-6 9-1 4 5-2 3 4 1 6-3 4 2 1 6 9-1 5 3 4 2v3l12-1 3 1 1-2v4h4v-2l8 2v-2l10 1 2-5v-3h2v-2l3-3 2-3 5 1 3-2 2 2v-3h2l1-3h4l1-5h2l1-4 5-2v-4l4-3h2v-2h2v-2l4-1 1-8 4-3h3l1-3 2-2v-4l-2-1v-2l4-3 5 4 2-1 1-3h2l-3-5 3-5h5v2l9-4 8-1 5 1 10-1 7-2 11 1 11 2 1 2h-2v2l-6-2 1 3 9-1 5 4 1 4 5 2 5 4 3 5 4 1h5l1 3-1 4 11 9h2l1 5h2v2h2v-2l7 2v2h3v2h2v2l4-1v2l7-1 3 2 7 1v3h2v-2l3 1h3l1 1h2v2h5 3l1 1 4 2 4-1 2 1 2 4h2v2h6l7 2h6l3-2 1-7 2-1 5 5-1 5-3-1v4h4l1-3 6 1 5-1 2 1 2-2 1 3 4-1 1-2v2h3v-6l2 1 7-3 4-2-1-3 2-1 1-3h3l4-4 4 1 3-4 1-3-2-1h2l1-2 3-1 6-6 1-3 4-2 4-7 4-1 2-4 3-3 2-4h3l3-1 4-6 2-4 7-1 8-5 13-1-2-1v-3z" fill="#51671A"/>
<path transform="translate(129,508)" d="m0 0h8l14 7 11 9 13 10 4 3v2h2v2h3v2l5 2 14 10 11 7 13 9 16 10v2h2l6 7 2 1v2l4 2 5 4 8 7 15 10 5 4 7 3v2l3 1 2 2 14 8 4 2 5 3 7 4 12 1 6-2 9-4 4-2 3-5 5-5 2-8h2l2-11 4-4 3-7 4-8 3-5 4-11h2l2-6 4-7 3-5 2-2h3l1-5 3-1 1-4 9-6 4-1 1-3 7-1 4-2 19-1 4 3v2h2l3 3 8 7 3 2 6 5 1 4h2v2l6 2 4 2 9 2v2l11 3 11 7 4 2 2 4h2v2l6 1v2l4 2 5 5 5 4v2l6 2v2l5 1 8 5 6 4 4 3 6 2v2l11 2h5l4 2 3 2 5 1h10l2-2 5 2 8-4 3-3 9-4 5-1 2-4h2v-3h2l1-3h2v-2l5-5 3-1 4-7 7-12 9-10 4-2 1-3h2v-2h3v-2h3v-2l5-4 4-4 5-1v-6h2v-2h3v-2l5-2-1-4 3-3 4-3 4 1h12v2h5l4 2h10l3 2v3l7 1v2l2-1 11-1 7 2h6l6 3 11 2 4 2h13l3 1h7l10-3 8-1 8-3 7-1 11-3 17-2h10l9-2 8 1 5 3 6 1 5 5 6 5 5 8 3 3 1 4h2l1 7h2l3 5 3 10 5 5 1 3 5 4 3 10 2 6v4l3 1 1 8-1 3 4 7v2l2 1-1 2 5 2 4 4v2l12 3 12 5h7l7-2 16-1 7-2 5 1 1-2 5 1h15l4-5 3 3 11 1 6-2 8 1v2l12-3 16-2 7-2h6l3-2h19l9-2h8l7 2h4l1-2 7 1 5-3 4 1v-2l9-3 3-6 4-3 2-1 3-3h4l-1-3 4 1 1-4h2l2-6 4-5h2l2-7 3-11 2-3 3-6 1-7 3-1-1-4 3-3 5-14 2-8 1-9h2l1-8 8-10 4-4 9-1 8 3 4 6 2 1v2h2l3 13-1 6 2 9 2 6-1 4 2 7 1 5 3 5v6l2 1-1 7 5 3 1 3 3 4v4h3l5 8 2 1 1 4 3 2v2l2 1 3 3 1 2 4 1 3 6v2h3v2l6 2v2l9 3 13 1 6 2 6-1h3l6 1 3-2 11-1 7-2v-2l12-3h3v-2l9-2 1-2h3v-2l11-6 2-4 11-3 5-2 8-1 7-2 11-3h6l9-4 8-1h9l1-2 4-2 7 1 1 1v16l-5-1v-2l-5 2-5 5-6-2-2 4h-4v-3l-5 2-9 1-10 4-3 1v2l-9 1-2-1h-1l-2 5-5 1-10 3-6 3-7 3-2 1h-7l-5 2-9 5-18 4-11 1-6 2-11 1h-10l-10-2-4-3h-13v-2l-2-1-3-2v-2l-6-1-3-3v-4l-5-2-5-6v-2l-4-2-5-3v-2l-3-1 1-2-5-2 1-8-10-3-1-3h2v-3l-4-1v-4l-2-1-3-6-3-2-1-5v-7h2l-3-9-2-2-1-6 2-1-1-7 2-5-4-1 1-9h1l1-6h-4-3l-2 9 3 1-2 5 1 6h-4l1 5h2l1 4-2 3-3 3h-2l-1 3h-2l-2 1v2l3 1-1 5-1 2h2l-1 3-2 2-1-3 1-2h-2v-2l-3 2 2 10-2 5h-2l4 10-3 3h-3l-1 4-2 3h-2l-1 4-6 2v2h-4l-1 3h-2l-1 3h-2v2l-6 3-4 6-13 7-9 3-9 4h-13l-16 1-6-1-8 2-5-2-6 2-4-1h-14l-7 2-9 1-10 1h-7l-3 1h-13l-2 1h-15l-3 1-18 1-3-1-24 3h-12l-1-1-8-1v-2l-10-2-12-7-7-6v-2l-3-1-4-5-6-15-4-9-6-12-6-10v-4h-2l-7-8-3-8-8-11-3 1-2-1v-3l-5-1v-2l-3 1-2-4-1 2-9-3-7 1h-4l-11-2-17 1-9 3-4-1-1 2h-4l-2 1h-13l-2 3-5 1h-11l-5-1-5-2-15-1-12-2-7 2v2h-4v-2l-9 1-4 3-15 3-10 1-4 1v1h-6l-3-3h-1l2 1-1 2-4-1-1 4-5 2v-2h-2v2l-4 1-2 1v2l-10 3-3 1v4l-8 2-1 5-4 5h-2l-1 3-5 8-5 9-5 2-3 1-2 4-3 1-2 4-11 7-6 2-4 3-5-1-10 3-9 1-16-2-3-2-6 1-6-4-9-2-7-1-3-1v-2l-5-1-9-5-7-2-3-3h-6v-2h-3v-2l-7-2-6-5-2 1-6-7-6-3v-2l-4-2v-2l-7-1-4-3-9-2-6-3v-2h-2v-3l-4-2-6-2-5-5-5-4v-2l-9-3-7-2-5-1-1-5h-2l-3 5-8 3-4 2v2l-3 3h-2l-2 5-5 3h-2l-2 5-3 2-2 6-5 5h-2v2h-2v6l-6 12-1 1-2 10-4 5-3 5-5 5-4 6-7 3-3 3-6 3-6 1h-11l-20-7-4-2v-2l-5-1-9-7-5-3-17-10v-2l-5-2-1-3-5-2-7-6-2-5-3-1-4-5v-2l-4-2-4-5v-2l-5-2-9-9-11-6-22-11-5-5-9-7-3-1v-2l-2-1-6-7-12-11-10-7-7-3-6-3-9 1-9 4-9 6-4 2-1 4h-2l-2 6-1 10-1 6-3 23-2 4v-11l3-21 1-11 5-10 9-8 7-5z" fill="#5B5F20"/>
<path transform="translate(0)" d="m0 0h55l-1 6h-4l-2 4-5-1h-2l-3 6-3 7-4 1-1 2v-2l-4-1 2-1-4-2 1 4 1 1v5l-2 3h-2l-1-2h-3l1 4-1 7-1 3 4 1-4 3h-5l-2 6h-3l-1 5-1 4 1 15h-3l2 12-3 4v2h-2z" fill="#51671A"/>
<path transform="translate(64,679)" d="m0 0 1 2h2v2l-15 8-6 4-13 4-30 3h-3v-7h5l3 3h8l15-2 7-1v-2l11-5 4-1 3-4 7-3z" fill="#54651C"/>
<path transform="translate(90,607)" d="m0 0h1l-1 14-5 20-9 27-4 7-2-1 1-7 3-8 4-9 7-23 3-15z" fill="#54651C"/>
<path transform="translate(1452,790)" d="m0 0h8l5 2 2 4-8 8-3-4h-9l-4 1v-3l6-3z" fill="#88602D"/>
<path transform="translate(1505)" d="m0 0h40l-1 4-8-2-2 5-2-1-3-2-7 2-2-1v-2l-7 1h-4l-5-1z" fill="#51671A"/>
<path transform="translate(1032)" d="m0 0h31l-1 2-3 1-2 2h-11l-3-1-5 1v-2h-2l-1 2z" fill="#52671B"/>
<path transform="translate(1432,790)" d="m0 0 7 3 1 2-7 3-5-1 1-5z" fill="#88602D"/>
<path transform="translate(1096)" d="m0 0h13l-2 4-5 1-4-1z" fill="#51671A"/>
<path transform="translate(1074)" d="m0 0h15v3l-3 1-11-1z" fill="#51671A"/>
<path transform="translate(90,607)" d="m0 0h1l-1 14-2 8-2-2 1-9 2-7z" fill="#55641D"/>
<path transform="translate(989)" d="m0 0h17l1 2-2 2h-3v-2l-7 2-4-2z" fill="#51671A"/>
<path transform="translate(1593)" d="m0 0h7v8l-5-1 1-3h-2z" fill="#52671B"/>
<path transform="translate(1575)" d="m0 0h11l1 2-3 2-6 1z" fill="#52671B"/>
<path transform="translate(1494,791)" d="m0 0h3l-1 6h-3l-5-2v-3h5z" fill="#875F2C"/>
<path transform="translate(994,514)" d="m0 0 3 4 6 1v2h2v2l-3 1-1-2h-4l-4-3z" fill="#51671A"/>
<path transform="translate(155,495)" d="m0 0 3 1v6l-5 1-1-1v-5z" fill="#52671B"/>
<path transform="translate(925)" d="m0 0h13v3h-10l-3-1z" fill="#50681A"/>
<path transform="translate(1525,792)" d="m0 0h5l3 3h-2v2l-4-1-4 2 1-5z" fill="#6C5924"/>
<path transform="translate(1012)" d="m0 0h11l-1 3-5 1-5-2z" fill="#51671A"/>
<path transform="translate(1122)" d="m0 0h9l-1 3-7 1z" fill="#52671B"/>
<path transform="translate(1301,787)" d="m0 0 2 1v2l-11 3v-2h2v-2z" fill="#6C5924"/>
</svg>
